<mxfile host="app.diagrams.net" modified="2021-12-07T09:23:17.915Z" agent="5.0 (Macintosh; Intel Mac OS X 10_15_7) AppleWebKit/605.1.15 (KHTML, like Gecko) Version/15.1 Safari/605.1.15" etag="Et75euw8SA7Yuc1XswkC" version="15.9.1" type="github">
  <diagram id="4rcBGJTDsko4UH_fuc9q" name="第 1 页">
    <mxGraphModel dx="700" dy="537" grid="1" gridSize="10" guides="1" tooltips="1" connect="1" arrows="1" fold="1" page="1" pageScale="1" pageWidth="850" pageHeight="1100" math="0" shadow="0">
      <root>
        <mxCell id="0" />
        <mxCell id="1" parent="0" />
        <mxCell id="bui0Wp4jezn7bQTCtuOE-3" value="" style="edgeStyle=orthogonalEdgeStyle;rounded=0;orthogonalLoop=1;jettySize=auto;html=1;" edge="1" parent="1" source="bui0Wp4jezn7bQTCtuOE-1" target="bui0Wp4jezn7bQTCtuOE-2">
          <mxGeometry relative="1" as="geometry" />
        </mxCell>
        <mxCell id="bui0Wp4jezn7bQTCtuOE-1" value="" style="rounded=0;whiteSpace=wrap;html=1;" vertex="1" parent="1">
          <mxGeometry x="140" y="100" width="120" height="60" as="geometry" />
        </mxCell>
        <mxCell id="bui0Wp4jezn7bQTCtuOE-5" value="" style="edgeStyle=orthogonalEdgeStyle;rounded=0;orthogonalLoop=1;jettySize=auto;html=1;" edge="1" parent="1" source="bui0Wp4jezn7bQTCtuOE-2" target="bui0Wp4jezn7bQTCtuOE-4">
          <mxGeometry relative="1" as="geometry" />
        </mxCell>
        <mxCell id="bui0Wp4jezn7bQTCtuOE-2" value="" style="rounded=0;whiteSpace=wrap;html=1;" vertex="1" parent="1">
          <mxGeometry x="140" y="240" width="120" height="60" as="geometry" />
        </mxCell>
        <mxCell id="bui0Wp4jezn7bQTCtuOE-4" value="" style="whiteSpace=wrap;html=1;rounded=0;" vertex="1" parent="1">
          <mxGeometry x="340" y="240" width="120" height="60" as="geometry" />
        </mxCell>
      </root>
    </mxGraphModel>
  </diagram>
</mxfile>
